<?xml version="1.0" encoding="utf-8"?>
<!-- Generator: Adobe Illustrator 26.0.0, SVG Export Plug-In . SVG Version: 6.00 Build 0)  -->
<svg version="1.1" id="Layer_1" xmlns="http://www.w3.org/2000/svg" xmlns:xlink="http://www.w3.org/1999/xlink" x="0px" y="0px"
	 viewBox="0 0 325.4 225.2" style="enable-background:new 0 0 325.4 225.2;" xml:space="preserve">
<style type="text/css">
	.st0{fill:#F7981D;}
	.st1{fill:#FFFFFF;}
	.st2{fill-rule:evenodd;clip-rule:evenodd;fill:#FFFFFF;}
</style>
<g>
	<path class="st1" d="M158.4,120.6c0,0,8.1-0.2,17.5-3.4c0,0,4-1.1,2.9-3.1c0,0,0.2-1.8-8.3-0.6c0,0,5.4-3,20.6-3.3
		c0,0-10.2-1.2-16.6,0.3c0,0-7.1,1.1-8.4,3c0,0-0.3,1.5,0.8,1.6c0,0,0.6,0.3,7.9-0.1l1.8,0.1C176.5,115,172.4,117.3,158.4,120.6"/>
	<path class="st0" d="M132.3,32.3c0,0-42.8-38.4-99.6-11.5l-8,110.4c0,0,64.1-27.5,97.8,8.9c0,0-54-31.4-102.5,0.6l7.3-125.1
		C27.4,15.6,94.5-14.5,132.3,32.3"/>
	<path class="st0" d="M135.3,123.7l4.1-89.3c0,0,41.4-29.5,93.8-0.4c0,0-56.3-23-89.4,4.9L135.3,123.7z"/>
	<path class="st0" d="M146.3,140.8c0,0,34.3-26.7,96.4,5.7l3-80.5l0.4,87.3C246.2,153.3,189.2,118.1,146.3,140.8"/>
	<path class="st0" d="M110,136.8c-56.2-16.1-96.6,11.4-96.6,11.4L19,82.3L8.8,157.1c43.2-24.8,80.6-23.1,99.8-19.6
		C108.6,137.2,109.7,137.1,110,136.8"/>
	<path class="st2" d="M205.8,92.5c-18.6-0.8-36.6,1.4-54.4,6.2c1.1,1.2,1.9,2.1,2.8,3c15.8-4.1,31.8-6.2,48.2-5.8
		C203.3,94.6,204.4,93.4,205.8,92.5"/>
	<path class="st2" d="M225,56.2c-0.5,1.2-0.9,2.1-0.9,2.3c-12.3-0.3-24.2-1.2-35.9-0.5c-11.7,0.7-23.2,2.9-34.8,4.4
		c0,0.3,0,0.6,0,0.9c-0.8-0.9-1.6-1.8-2.6-2.9C174.9,53.9,199.3,52,225,56.2"/>
	<path class="st2" d="M150.9,50.4c24-6.4,48.3-8.1,73.4-4c-0.4,3.4-0.5,3.5-4.2,2.9c-21.8-3.2-42.9-1.8-63.6,3.4
		C153.5,53.5,151.9,53.2,150.9,50.4"/>
	<path class="st2" d="M215.8,84.4c-0.2-0.3-0.3-0.5-0.4-0.8c-22.1-2.3-43.3-0.2-64.2,5.4c1.1,1.2,1.9,2.1,2.8,3
		c20-5.2,40.2-7.3,61.2-5C215,86.1,215.2,85.2,215.8,84.4"/>
	<path class="st2" d="M225.1,65.5c-0.3,0.9-0.4,1.5-0.7,2.1c-0.2,0.4-0.5,0.7-0.8,1.2c-23.9-4-47.1-2.2-69.9,3.8
		c-0.5-0.5-1.1-0.9-1.5-1.4c-0.4-0.4-0.6-0.9-1.2-1.6C175,63.1,199.4,61.3,225.1,65.5"/>
	<path class="st2" d="M218.5,75.8c0.4-0.4,0.8-0.7,1.2-0.9c-23.4-3-46.1-1.1-68.6,4.9c1,1.2,1.7,2,2.6,3c20.7-5.5,41.6-7.4,63.2-4.7
		C217.3,77.2,217.8,76.4,218.5,75.8"/>
	<path class="st2" d="M98.4,95.1c-18.6-0.8-36.6,1.4-54.4,6.2c1.1,1.2,1.9,2.1,2.8,3c15.8-4.1,31.8-6.2,48.2-5.8
		C95.9,97.2,97,96,98.4,95.1"/>
	<path class="st2" d="M117.5,58.9c-0.5,1.2-0.9,2.1-0.9,2.3c-12.3-0.3-24.2-1.2-35.9-0.5C69,61.2,57.5,63.5,45.9,65
		c0,0.3,0,0.6,0,0.9c-0.8-0.9-1.6-1.8-2.6-2.9C67.5,56.5,91.8,54.6,117.5,58.9"/>
	<path class="st2" d="M43.4,53c24-6.4,48.3-8.1,73.4-4c-0.4,3.4-0.5,3.5-4.2,2.9c-21.8-3.2-42.9-1.8-63.6,3.4
		C46.1,56.1,44.4,55.8,43.4,53"/>
	<path class="st2" d="M108.4,87c-0.2-0.3-0.3-0.5-0.4-0.8c-22.1-2.3-43.3-0.2-64.2,5.4c1.1,1.2,1.9,2.1,2.8,3
		c20-5.2,40.2-7.3,61.2-5C107.5,88.7,107.8,87.8,108.4,87"/>
	<path class="st2" d="M117.6,68.1c-0.3,0.9-0.4,1.5-0.7,2.1c-0.2,0.4-0.5,0.7-0.8,1.2c-23.9-4-47.1-2.2-69.9,3.8
		c-0.5-0.5-1.1-0.9-1.5-1.4c-0.4-0.4-0.6-0.9-1.2-1.6C67.5,65.7,91.9,63.9,117.6,68.1"/>
	<path class="st2" d="M111,78.4c0.4-0.4,0.8-0.7,1.2-0.9c-23.4-3-46.1-1.1-68.6,4.9c1,1.2,1.7,2,2.6,3c20.7-5.5,41.6-7.4,63.2-4.7
		C109.8,79.8,110.4,79,111,78.4"/>
	<path class="st0" d="M220.4,82.1c-23.9,18.6-31.8,29-30.5,29.8c1.5,1,3.6-3,6.4-6.1c3.7-5.3,28.4-26.5,34.2-29.9
		c2.8-4.3,38.8-24.6,56.8-33.5C270.6,50.2,237.3,67.5,220.4,82.1 M297.3,38.3C297.3,38.3,297.3,38.3,297.3,38.3
		C297.3,38.3,297.3,38.3,297.3,38.3 M287.3,42.4c5.9-2.8,9.8-4.3,10-4.1c0,0-0.1-0.1-0.2-0.1C296.1,38.2,292.4,39.8,287.3,42.4"/>
	<path class="st0" d="M248,82.6L248,82.6L248,82.6 M262,74.3c0.1-0.1,0.2-0.1,0.3-0.2l0,0C262.3,74.2,262.1,74.2,262,74.3
		 M261.9,70.4L261.9,70.4L261.9,70.4 M235.2,56.2C235.2,56.2,235.3,56.2,235.2,56.2C235.3,56.2,235.3,56.2,235.2,56.2
		C235.3,56.2,235.2,56.2,235.2,56.2 M258,41.5L258,41.5L258,41.5L258,41.5 M266.3,36.9C266.3,36.9,266.3,36.9,266.3,36.9L266.3,36.9
		C266.3,36.9,266.3,36.9,266.3,36.9 M247.1,71.9c3.2,0.8,3.7,1.2,7.1,1c-0.1,0-0.5,0.1-1.2,0.1c-1.6,0.2-4.5,0.3-6.5-0.3
		c-2.9-0.9-7.2-0.7-8.1-0.5C238.4,72.2,243.9,71.2,247.1,71.9 M275.2,56.3c0,0-3.2,1.2-7.6,0.9c-4.4-0.3-8.8,0.1-8.8,0.1
		c0,0,5.4-1.1,8.9-0.9c1.7,0.1,3,0.2,4.2,0.2C273,56.6,274,56.5,275.2,56.3 M238.3,57.8c1.8-2.1,3.1-5.1,3.1-5.1c0,0-0.3,3.7-3,6.3
		c-2.6,2.5-5.3,7.6-5.4,7.9C233.8,65.1,236.5,59.9,238.3,57.8 M273.9,47.1c0,0,7.4-0.6,10.3-0.3c0,0-2.8,0.5-6.4,0.5
		C276.6,47.3,275.3,47.3,273.9,47.1 M288.7,42.7c3.3,1.8,11.9,1.7,11.8,1.7c-1.5,0.2-2.8,0.2-3.9,0.2
		C290.6,44.7,288.7,42.8,288.7,42.7 M267,41.8c2.4-4.3,6.3-6.1,6.3-6.1c0,0-3,1.9-4,3.8c-1.1,1.9-4.6,7.1-7.2,9.2c0,0,0,0,0,0
		C262.1,48.8,264.7,46.1,267,41.8 M273.3,35.8L273.3,35.8 M305.8,20.4c-1.8,1.9-6.2,6.9-7.2,8.7c-0.1,0.2-0.2,0.4-0.2,0.4
		c0-0.1,0.1-0.2,0.2-0.4c0.7-1.3,3.1-5.6,4.8-8c-0.7,0.2-1.4,0.5-2.2,0.7c-2.6,2-5.2,4.1-7.6,6.2c1.9-1.9,3.8-3.7,5.7-5.5
		c-2,0.7-4.2,1.6-6.6,2.6c-2.2,1.6-7.1,5.6-8.7,8c-0.3,0.6-0.5,1-0.5,1c0.1-0.3,0.2-0.6,0.5-1c0.7-1.4,2.1-3.8,4-6
		c-1,0.4-2,0.9-3,1.3c-1.4,1.1-3.7,3-6,5.7c-3,3.6-3.7,4.9-4,5.3c-0.1,0.1-0.1,0.2-0.1,0.2s0,0,0.1-0.2c0.5-1,3.3-6.6,6.3-9.5
		c-0.1,0.1-0.2,0.1-0.4,0.2c-5.6,2.4-15.2,6.3-20.3,14.1c-5.1,7.8-10.6,11.9-10.6,11.9c1.1-1.2,6.8-7.2,8.6-11.2
		c1.6-3.9,7.5-7.9,7.8-8c-6.6,3.3-11.6,9.6-14.8,14.3c-1.8,2.7-3.5,4.7-4.5,6c0.8-1.3,1.6-3.1,2.2-5.8c0.9-4,8.7-9.9,8.8-9.9
		c-2.7,0.3-11.9,7.9-16.4,9.5c-4.6,1.7-1.8,3.2-6.3,7.2c-4.5,4.1-6.9,11.7-6.9,11.8c-1.6-5.1,6.1-13.1,6.9-13.7
		c-0.4,0.3-3.7,2.6-9,7.7c-1.2,3.8-1.7,8.7-1.8,9.9c0,0.1,0,0.1,0,0.1c0,0,0-0.1,0-0.1c0-0.5,0-2.2-0.8-4.6
		c-0.3-0.7-0.1-1.7,0.2-2.7c-5.4,7.4-7.3,22.3-4.6,17.9c1.1-1.8,10.5-5.3,16.6-2.5c4.3,1.9,8.6,1.5,10.8,1.1
		c0.9-0.2,1.4-0.3,1.5-0.3c-2.7,0.5-8.8-1.6-11.6-3.3c-2.8-1.7-6.1-0.8-6.1-0.8c3.6-2.3,9-0.1,11.6,1.3c2.6,1.4,6.1,0.5,10-0.3
		c2.6-0.6,8.6-4.3,10.1-5.2c-7.1,4.1-16.7,3.7-20.8,2c-3.4-1.5-5.7-1.4-6.3-1.4c-0.1,0-0.2,0-0.2,0c1.8-1.4,5.9-1.2,8.5-0.4
		c2.7,0.8,9.3,0.3,11.3,0c2-0.3,7.3-4.2,7.4-4.2c-1.5,0.2-6.5-0.2-10.9-0.7c-3.8-0.4-7-0.8-7.2-0.7c1.8-0.9,8-0.7,13.1-0.5
		c3.6,0.2,6.7,0.3,7.3,0.1c1.4-0.7,5.8-4.9,6.2-5.5c0.3-0.5-8.9-0.6-14.3-0.4c5.4-0.5,13.3-1.4,15.6-1.7c2.9-0.3,6.6-1.3,11.7-4.7
		c1.1-0.7,2.5-2,7.6-4.8c-4.9,0.1-10.5,0-13.4,0c-0.7,0-1.3,0-1.8,0c0,0,0.7,0,1.8,0c4.2-0.2,12.1-1.7,18.4-2.7
		c0.7-0.4,1.5-0.8,2.4-1.2c4.8-2.4,9.2-4.4,12.7-6.3c-3.8,0.3-10.7,0.1-20.4-2.2c0.5,0.1,10,1.2,23.5,0.4c0.7-0.5,1.4-1,2.1-1.4
		c-2.9,0.1-8.4,0.4-10.4,0.3c0,0,7.4-1,12.2-1.9c1.2-1.2,2.1-2.5,2.5-3.8c-1,0-2.1,0-3.1,0c1.1-0.3,2.2-0.5,3.4-0.8
		c0.1-0.4,0.1-0.8,0.1-1.2c-2.2,0.4-4.4,0.8-6.5,1.2c2.2-0.6,4.3-1.1,6.5-1.6c0-0.7-0.2-1.4-0.4-2.1c-0.6,0.1-1.2,0.3-1.7,0.4
		c0.6-0.2,1.1-0.4,1.7-0.6c-0.1-0.3-0.2-0.6-0.4-0.9c-1.1,0.3-2.3,0.7-3.4,1c1.1-0.5,2.1-1,3.2-1.5c-0.4-0.9-1-1.9-1.8-2.9
		c-1-1.3-2.1-2.3-3.3-2.9c-1.6,1.3-4.9,3.7-5,3.8c1.5-1.4,3-2.7,4.5-4.1c-0.4-0.2-0.9-0.3-1.4-0.4c-2.4,2.3-4.8,4.6-7.1,7
		c2.1-2.4,4.2-4.7,6.4-7.1c-0.5-0.1-1-0.1-1.6-0.1C309.1,19.8,307.5,20,305.8,20.4"/>
	<g>
		<path class="st1" d="M29.7,176.4c0,1.1-0.2,2.1-0.7,2.9c-0.5,0.9-1.2,1.6-2,2.1c-1,0.7-2.1,1.1-3.2,1.4c-1.2,0.3-2.7,0.4-4.5,0.4
			H8.3v-22.7H18c2,0,3.5,0.1,4.4,0.2c0.9,0.1,1.9,0.4,2.8,0.8c0.9,0.4,1.7,1,2.1,1.8c0.5,0.7,0.7,1.6,0.7,2.5c0,1.1-0.3,2.1-1,2.9
			c-0.6,0.8-1.5,1.5-2.7,2v0.1c1.6,0.3,2.9,0.9,3.9,1.8C29.2,173.7,29.7,174.9,29.7,176.4z M21.4,167.1c0-0.4-0.1-0.8-0.3-1.1
			c-0.2-0.4-0.6-0.7-1.1-0.8c-0.5-0.2-1.1-0.3-1.8-0.3c-0.7,0-1.7,0-2.9,0h-0.6v4.8h1c1,0,1.9,0,2.6,0c0.7,0,1.3-0.1,1.7-0.3
			c0.6-0.2,1-0.5,1.1-0.9C21.4,168,21.4,167.5,21.4,167.1z M23,176.3c0-0.7-0.2-1.3-0.5-1.7c-0.3-0.4-0.8-0.7-1.6-0.9
			c-0.5-0.1-1.2-0.2-2.1-0.2c-0.9,0-1.8,0-2.8,0h-1.4v5.7h0.5c1.8,0,3.1,0,3.9,0c0.8,0,1.5-0.1,2.2-0.4c0.7-0.3,1.1-0.6,1.4-1
			C22.9,177.3,23,176.8,23,176.3z"/>
		<path class="st1" d="M53.4,174.8c0,2.8-0.9,5-2.7,6.7c-1.8,1.6-4.3,2.4-7.6,2.4c-3.3,0-5.8-0.8-7.6-2.4c-1.8-1.6-2.7-3.8-2.7-6.7
			c0-2.8,0.9-5.1,2.7-6.7c1.8-1.6,4.3-2.4,7.6-2.4c3.3,0,5.8,0.8,7.6,2.4C52.5,169.8,53.4,172,53.4,174.8z M45.9,179
			c0.4-0.4,0.7-1,0.9-1.6c0.2-0.6,0.3-1.5,0.3-2.6c0-1-0.1-1.8-0.3-2.5c-0.2-0.7-0.5-1.2-0.8-1.6c-0.4-0.4-0.8-0.7-1.3-0.9
			c-0.5-0.2-1-0.3-1.6-0.3c-0.6,0-1.1,0.1-1.5,0.2c-0.5,0.1-0.9,0.4-1.3,0.9c-0.4,0.4-0.7,0.9-0.9,1.6c-0.2,0.7-0.3,1.6-0.3,2.6
			c0,0.9,0.1,1.7,0.3,2.4c0.2,0.7,0.5,1.2,0.8,1.7c0.4,0.4,0.8,0.7,1.3,0.9c0.5,0.2,1.1,0.3,1.7,0.3c0.5,0,1.1-0.1,1.6-0.3
			C45.2,179.6,45.6,179.4,45.9,179z"/>
		<path class="st1" d="M76.9,174.8c0,2.8-0.9,5-2.7,6.7c-1.8,1.6-4.3,2.4-7.6,2.4c-3.3,0-5.8-0.8-7.6-2.4c-1.8-1.6-2.7-3.8-2.7-6.7
			c0-2.8,0.9-5.1,2.7-6.7c1.8-1.6,4.3-2.4,7.6-2.4c3.3,0,5.8,0.8,7.6,2.4C76,169.8,76.9,172,76.9,174.8z M69.5,179
			c0.4-0.4,0.7-1,0.9-1.6c0.2-0.6,0.3-1.5,0.3-2.6c0-1-0.1-1.8-0.3-2.5c-0.2-0.7-0.5-1.2-0.8-1.6c-0.4-0.4-0.8-0.7-1.3-0.9
			c-0.5-0.2-1-0.3-1.6-0.3c-0.6,0-1.1,0.1-1.5,0.2c-0.5,0.1-0.9,0.4-1.3,0.9c-0.4,0.4-0.7,0.9-0.9,1.6c-0.2,0.7-0.3,1.6-0.3,2.6
			c0,0.9,0.1,1.7,0.3,2.4c0.2,0.7,0.5,1.2,0.8,1.7c0.4,0.4,0.8,0.7,1.3,0.9c0.5,0.2,1.1,0.3,1.7,0.3c0.5,0,1.1-0.1,1.6-0.3
			C68.7,179.6,69.1,179.4,69.5,179z"/>
		<path class="st1" d="M101.2,183.3h-7l-5.3-7.4l-1.6,1.8v5.6h-6v-23.7h6v14.2l6.5-7.5h7l-6.8,7.4L101.2,183.3z"/>
		<path class="st1" d="M150.7,160.6l-6.7,22.7h-7.1l-4.5-14.8l-4.4,14.8h-7.1l-6.7-22.7h6.7l3.8,15.6l4.6-15.6h6.4l4.4,15.6l4-15.6
			H150.7z"/>
		<path class="st1" d="M168.3,171.5h-0.5c-0.3-0.1-0.7-0.1-1.2-0.2c-0.6,0-1-0.1-1.4-0.1c-0.9,0-1.6,0.1-2.3,0.2
			c-0.7,0.1-1.4,0.3-2.1,0.5v11.5h-6v-17.1h6v2.5c1.3-1,2.5-1.7,3.5-2.1c1-0.3,1.9-0.5,2.7-0.5c0.2,0,0.5,0,0.7,0c0.3,0,0.5,0,0.7,0
			V171.5z"/>
		<path class="st1" d="M177.9,163.8h-6.4v-4.2h6.4V163.8z M177.8,183.3h-6v-17.1h6V183.3z"/>
		<path class="st1" d="M195.5,183.2c-0.6,0.2-1.3,0.3-2.1,0.4c-0.7,0.1-1.6,0.1-2.7,0.1c-2.3,0-4.1-0.4-5.2-1.3
			c-1.1-0.9-1.7-2.3-1.7-4.4v-8h-2.5v-3.7h2.5v-4.9h6v4.9h5.6v3.7h-5.6v6.1c0,0.6,0,1.1,0,1.6c0,0.4,0.1,0.8,0.3,1.2
			c0.2,0.4,0.4,0.6,0.8,0.8c0.4,0.2,1,0.3,1.7,0.3c0.3,0,0.7-0.1,1.2-0.2c0.5-0.1,0.9-0.2,1.1-0.3h0.5V183.2z"/>
		<path class="st1" d="M205.3,163.8h-6.4v-4.2h6.4V163.8z M205.1,183.3h-6v-17.1h6V183.3z"/>
		<path class="st1" d="M229.7,183.3h-6v-8.5c0-0.7,0-1.4-0.1-2.1c-0.1-0.7-0.2-1.2-0.4-1.5c-0.2-0.4-0.6-0.7-1-0.8
			c-0.4-0.2-1-0.3-1.8-0.3c-0.5,0-1.1,0.1-1.7,0.2c-0.6,0.2-1.2,0.4-1.8,0.8v12.1h-6v-17.1h6v1.9c1.1-0.8,2.1-1.3,3.1-1.8
			c1-0.4,2.1-0.6,3.3-0.6c2,0,3.6,0.5,4.8,1.6c1.1,1.1,1.7,2.7,1.7,4.8V183.3z"/>
		<path class="st1" d="M253.5,181.4c0,1.6-0.3,3-0.8,4.1c-0.5,1.1-1.2,2-2.1,2.6c-0.9,0.6-2,1.1-3.3,1.4c-1.3,0.3-2.7,0.4-4.3,0.4
			c-1.3,0-2.6-0.1-3.9-0.2c-1.3-0.1-2.4-0.3-3.3-0.5v-4.3h0.7c0.7,0.3,1.6,0.5,2.7,0.7c1.1,0.2,2,0.3,2.8,0.3c1.1,0,2-0.1,2.7-0.3
			c0.7-0.2,1.2-0.5,1.6-0.8c0.3-0.3,0.6-0.7,0.8-1.3c0.2-0.5,0.2-1.1,0.2-1.8v-0.3c-0.7,0.5-1.5,1-2.4,1.3c-0.9,0.3-1.9,0.5-2.9,0.5
			c-2.6,0-4.7-0.7-6.1-2.2c-1.4-1.4-2.1-3.6-2.1-6.6c0-1.4,0.2-2.6,0.7-3.7c0.4-1,1-1.9,1.8-2.7c0.7-0.7,1.6-1.3,2.7-1.7
			c1.1-0.4,2.2-0.6,3.3-0.6c1,0,1.9,0.1,2.8,0.3c0.8,0.2,1.6,0.5,2.3,0.9l0.2-0.8h5.9V181.4z M247.4,177.9v-7.8
			c-0.3-0.1-0.8-0.2-1.3-0.3c-0.5-0.1-1-0.1-1.4-0.1c-1.6,0-2.8,0.4-3.6,1.2c-0.8,0.8-1.2,2-1.2,3.5c0,1.6,0.3,2.8,1,3.4
			c0.7,0.7,1.7,1,3,1c0.6,0,1.2-0.1,1.8-0.3C246.4,178.5,247,178.2,247.4,177.9z"/>
		<path class="st0" d="M87.5,209.3h-15v-18.9h15v3.7h-9.7v3.3h9v3.7h-9v4.7h9.7V209.3z"/>
		<path class="st0" d="M127.2,201.9c0,1.2-0.2,2.2-0.6,3.2c-0.4,1-0.9,1.8-1.6,2.4c-0.7,0.7-1.4,1.2-2.3,1.5
			c-0.8,0.3-1.8,0.5-2.7,0.5c-0.9,0-1.6-0.1-2.3-0.3c-0.6-0.2-1.3-0.4-1.9-0.7v5.9h-5V195h5v1.5c0.8-0.6,1.6-1,2.4-1.4
			c0.8-0.3,1.7-0.5,2.8-0.5c2,0,3.5,0.7,4.6,2S127.2,199.6,127.2,201.9z M122.1,202c0-1.4-0.3-2.4-0.8-3c-0.5-0.6-1.3-0.9-2.5-0.9
			c-0.5,0-1,0.1-1.5,0.2c-0.5,0.1-1,0.3-1.4,0.6v7.2c0.3,0.1,0.7,0.2,1.1,0.2c0.4,0,0.8,0.1,1.1,0.1c1.3,0,2.3-0.4,3-1.1
			C121.7,204.5,122.1,203.4,122.1,202z"/>
		<path class="st0" d="M146.3,203h-11.5c0.1,1.1,0.5,2,1.4,2.6c0.9,0.6,2.1,0.9,3.8,0.9c1.1,0,2.1-0.2,3.1-0.5
			c1-0.3,1.8-0.7,2.4-1.1h0.6v3.7c-1.1,0.4-2.2,0.7-3.2,0.9c-1,0.2-2.1,0.3-3.3,0.3c-3.1,0-5.6-0.6-7.2-1.9
			c-1.7-1.3-2.5-3.1-2.5-5.5c0-2.4,0.8-4.2,2.4-5.6c1.6-1.4,3.8-2.1,6.5-2.1c2.5,0,4.5,0.6,5.7,1.8c1.3,1.2,1.9,2.9,1.9,5.1V203z
			 M141.3,200.3c0-1-0.3-1.7-0.8-2.2c-0.5-0.5-1.3-0.7-2.3-0.7c-1,0-1.8,0.2-2.4,0.7c-0.6,0.5-1,1.2-1,2.2H141.3z"/>
		<path class="st0" d="M161.2,199.3h-0.4c-0.2-0.1-0.6-0.1-1-0.2s-0.9-0.1-1.2-0.1c-0.7,0-1.3,0-1.9,0.1c-0.5,0.1-1.1,0.2-1.8,0.4
			v9.6h-5V195h5v2.1c1.1-0.9,2.1-1.4,2.9-1.7c0.8-0.3,1.6-0.4,2.3-0.4c0.2,0,0.4,0,0.6,0c0.2,0,0.4,0,0.6,0V199.3z"/>
		<path class="st0" d="M174.1,209.1c-0.5,0.1-1.1,0.2-1.7,0.3c-0.6,0.1-1.3,0.1-2.2,0.1c-2,0-3.4-0.4-4.4-1.1c-1-0.7-1.4-2-1.4-3.7
			v-6.7h-2.1V195h2.1v-4.1h5v4.1h4.7v3.1h-4.7v5.1c0,0.5,0,0.9,0,1.3c0,0.4,0.1,0.7,0.2,1c0.1,0.3,0.4,0.5,0.7,0.7
			c0.3,0.2,0.8,0.3,1.4,0.3c0.3,0,0.6-0.1,1-0.2c0.4-0.1,0.7-0.2,0.9-0.3h0.4V209.1z"/>
		<path class="st0" d="M190.7,204.7c0,1.5-0.7,2.7-2.2,3.6s-3.4,1.4-6,1.4c-1.4,0-2.7-0.1-3.8-0.4c-1.1-0.2-2-0.5-2.7-0.8v-3.8h0.5
			c0.3,0.2,0.5,0.3,0.9,0.5c0.3,0.2,0.8,0.4,1.4,0.6c0.5,0.2,1.1,0.4,1.8,0.5c0.7,0.1,1.4,0.2,2.1,0.2c1,0,1.7-0.1,2.2-0.3
			c0.5-0.2,0.7-0.5,0.7-0.9c0-0.3-0.1-0.6-0.4-0.8c-0.3-0.2-0.8-0.3-1.6-0.5c-0.4-0.1-0.9-0.2-1.5-0.2c-0.6-0.1-1.2-0.2-1.7-0.3
			c-1.4-0.3-2.5-0.9-3.2-1.6c-0.7-0.7-1-1.6-1-2.7c0-1.4,0.7-2.5,2.1-3.4c1.4-0.9,3.4-1.4,5.9-1.4c1.2,0,2.3,0.1,3.4,0.3
			s1.9,0.4,2.5,0.7v3.6h-0.4c-0.7-0.5-1.6-0.8-2.5-1.1c-1-0.3-1.9-0.4-2.9-0.4c-0.8,0-1.5,0.1-2,0.3c-0.6,0.2-0.8,0.5-0.8,0.9
			c0,0.3,0.1,0.6,0.4,0.8c0.3,0.2,0.8,0.4,1.8,0.5c0.5,0.1,1.1,0.2,1.7,0.3c0.6,0.1,1.2,0.2,1.8,0.3c1.3,0.3,2.3,0.8,2.9,1.5
			C190.4,202.9,190.7,203.7,190.7,204.7z"/>
	</g>
	<polygon class="st0" points="108.1,195 106,197.3 108,195 	"/>
	<polygon class="st0" points="102,202 108.1,209.3 102.3,209.3 98.9,205 96.5,208 96.6,208 86.8,222.1 81.7,218.4 89.7,209.3 
		89.9,209.1 95.9,202.1 89.8,195 95.7,195 99,199.2 100.1,197.8 111.5,182 116,185.6 108,195 106,197.3 	"/>
</g>
</svg>
