<?xml version="1.0" standalone="no"?>
<!DOCTYPE svg PUBLIC "-//W3C//DTD SVG 20010904//EN"
 "http://www.w3.org/TR/2001/REC-SVG-20010904/DTD/svg10.dtd">
<svg version="1.0" xmlns="http://www.w3.org/2000/svg"
 width="30.000000pt" height="30.000000pt" viewBox="0 0 30.000000 30.000000"
 preserveAspectRatio="xMidYMid meet">

<g transform="translate(0.000000,30.000000) scale(0.100000,-0.100000)"
fill="#000000" stroke="none">
<path d="M2 283 c2 -13 17 -20 54 -24 114 -14 194 -99 207 -219 2 -24 9 -36
22 -39 16 -3 17 2 12 52 -7 68 -27 110 -80 165 -45 46 -125 82 -183 82 -28 0
-35 -3 -32 -17z"/>
<path d="M2 213 c2 -12 16 -20 43 -24 51 -7 76 -21 109 -60 25 -30 33 -48 40
-99 1 -14 10 -26 19 -28 43 -8 5 119 -49 170 -55 52 -170 80 -162 41z"/>
<path d="M2 144 c2 -13 13 -20 35 -22 40 -4 81 -45 85 -85 4 -42 38 -52 38
-12 0 66 -53 123 -122 133 -35 4 -40 3 -36 -14z"/>
<path d="M10 56 c-27 -33 18 -72 48 -42 13 13 14 20 6 34 -15 23 -38 26 -54 8z"/>
</g>
</svg>
