<?xml version="1.0" encoding="utf-8"?>
<!-- Generator: Adobe Illustrator 26.0.0, SVG Export Plug-In . SVG Version: 6.00 Build 0)  -->
<svg version="1.1" id="Layer_1" xmlns="http://www.w3.org/2000/svg" xmlns:xlink="http://www.w3.org/1999/xlink" x="0px" y="0px"
	 viewBox="0 0 107.8 106.8" style="enable-background:new 0 0 107.8 106.8;" xml:space="preserve">
<style type="text/css">
	.st0{fill:#F7981D;}
	.st1{fill:#FFFFFF;}
	.st2{fill-rule:evenodd;clip-rule:evenodd;fill:#FFFFFF;}
</style>
<g>
	<path class="st0" d="M21.1,1.8h65.7c10.4,0,18.8,8.4,18.8,18.8v65.7c0,10.4-8.4,18.8-18.8,18.8H21.1c-10.4,0-18.8-8.4-18.8-18.8
		V20.6C2.3,10.2,10.7,1.8,21.1,1.8z"/>
	<g>
		<path class="st1" d="M86.7,27.2c0,0-22.7-20.4-52.9-6.1l-4.2,58.6c0,0,34-14.6,51.9,4.7c0,0-28.7-16.7-54.4,0.3L31,18.4
			C31,18.4,66.6,2.4,86.7,27.2"/>
		<path class="st1" d="M74.8,82.7c-29.8-8.6-51.3,6-51.3,6l3-35l-5.4,39.7c22.9-13.2,42.8-12.3,53-10.4
			C74.1,82.9,74.7,82.9,74.8,82.7"/>
		<path class="st2" d="M68.7,60.6c-9.9-0.4-19.4,0.8-28.9,3.3c0.6,0.6,1,1.1,1.5,1.6c8.4-2.2,16.9-3.3,25.6-3.1
			C67.4,61.7,68,61.1,68.7,60.6"/>
		<path class="st2" d="M78.9,41.3c-0.3,0.6-0.5,1.1-0.5,1.2c-6.5-0.1-12.8-0.6-19.1-0.3c-6.2,0.3-12.3,1.5-18.5,2.4
			c0,0.2,0,0.3,0,0.5c-0.4-0.5-0.8-0.9-1.4-1.6C52.3,40.1,65.2,39.1,78.9,41.3"/>
		<path class="st2" d="M39.5,38.2c12.7-3.4,25.6-4.3,39-2.1c-0.2,1.8-0.3,1.8-2.3,1.6c-11.6-1.7-22.8-0.9-33.8,1.8
			C40.9,39.9,40.1,39.7,39.5,38.2"/>
		<path class="st2" d="M74,56.3c-0.1-0.1-0.2-0.3-0.2-0.4c-11.7-1.2-23-0.1-34.1,2.9c0.6,0.6,1,1.1,1.5,1.6
			c10.6-2.8,21.4-3.9,32.5-2.7C73.6,57.2,73.7,56.7,74,56.3"/>
		<path class="st2" d="M78.9,46.3c-0.2,0.5-0.2,0.8-0.4,1.1c-0.1,0.2-0.2,0.4-0.4,0.6c-12.7-2.1-25-1.2-37.1,2
			c-0.3-0.2-0.6-0.5-0.8-0.7c-0.2-0.2-0.3-0.5-0.6-0.8C52.3,45,65.3,44,78.9,46.3"/>
		<path class="st2" d="M75.4,51.7c0.2-0.2,0.4-0.4,0.6-0.5c-12.4-1.6-24.5-0.6-36.4,2.6c0.5,0.6,0.9,1.1,1.4,1.6
			c11-2.9,22.1-4,33.5-2.5C74.8,52.4,75.1,52,75.4,51.7"/>
	</g>
</g>
</svg>
