<?xml version="1.0" encoding="utf-8"?>
<!-- Generator: Adobe Illustrator 26.0.0, SVG Export Plug-In . SVG Version: 6.00 Build 0)  -->
<svg version="1.1" id="Layer_1" xmlns="http://www.w3.org/2000/svg" xmlns:xlink="http://www.w3.org/1999/xlink" x="0px" y="0px"
	 viewBox="0 0 107.8 106.8" style="enable-background:new 0 0 107.8 106.8;" xml:space="preserve">
<style type="text/css">
	.st0{fill:#F7981D;}
	.st1{fill:#FFFFFF;}
	.st2{fill-rule:evenodd;clip-rule:evenodd;fill:#FFFFFF;}
</style>
<g>
	<path class="st0" d="M20.5,0.9h66.8c10.5,0,19.1,8.6,19.1,19.1v66.8c0,10.5-8.6,19.1-19.1,19.1H20.5c-10.5,0-19.1-8.6-19.1-19.1V20
		C1.4,9.5,10,0.9,20.5,0.9z"/>
	<path class="st1" d="M81.7,64.9c0,2.9-0.6,5.4-1.9,7.7c-1.3,2.3-3,4.1-5.2,5.6c-2.6,1.7-5.4,3-8.4,3.7c-3.1,0.7-7,1.1-11.7,1.1
		H26.1V23.8h25.2c5.2,0,9.1,0.2,11.5,0.5c2.4,0.3,4.8,1,7.2,2.1c2.5,1.1,4.3,2.7,5.5,4.6c1.2,1.9,1.8,4.1,1.8,6.6
		c0,2.9-0.8,5.4-2.5,7.6c-1.7,2.2-4,3.9-7,5.1v0.3c4.2,0.8,7.6,2.4,10.1,4.8C80.5,57.7,81.7,60.9,81.7,64.9z M60.2,40.6
		c0-1-0.3-2-0.8-2.9c-0.5-1-1.5-1.7-2.9-2.2c-1.2-0.4-2.7-0.7-4.6-0.7c-1.8,0-4.4-0.1-7.7-0.1h-1.6v12.5h2.6c2.6,0,4.9,0,6.8-0.1
		c1.9-0.1,3.3-0.3,4.4-0.8c1.5-0.6,2.5-1.4,3-2.4C60,43,60.2,41.8,60.2,40.6z M64.3,64.6c0-1.9-0.4-3.3-1.2-4.3
		c-0.8-1-2.2-1.8-4.1-2.3c-1.3-0.3-3.1-0.5-5.4-0.6c-2.3,0-4.7,0-7.2,0h-3.7v14.7H44c4.7,0,8.1,0,10.1,0c2,0,3.9-0.4,5.6-1
		c1.7-0.7,2.9-1.5,3.6-2.6C64,67.3,64.3,66.1,64.3,64.6z"/>
</g>
</svg>
